<svg width="60" height="61" viewBox="0 0 60 61" fill="none" xmlns="http://www.w3.org/2000/svg">
<path class="__behance" d="M28.17 29.5039C28.59 28.8439 28.83 28.0939 28.8 27.2539C28.77 25.0339 26.91 23.2939 24.72 23.2939H18.51C18.21 23.2939 18 23.5339 18 23.8039V37.3639C18 37.6639 18.24 37.8739 18.51 37.8739H25.41C27.96 37.8739 30.09 35.8339 30.09 33.2539C30.09 31.7239 29.34 30.3439 28.17 29.5039ZM20.7 25.9939H24.75C25.47 25.9939 26.07 26.5939 26.07 27.3139C26.07 28.0339 25.47 28.6339 24.75 28.6339H20.7V25.9939ZM25.5 35.2039H20.7V31.3639H25.5C26.55 31.3639 27.42 32.2339 27.42 33.2839C27.42 34.3339 26.55 35.2039 25.5 35.2039ZM41.97 32.3239C41.97 29.1739 39.48 26.5939 36.42 26.5939C33.36 26.5939 30.87 29.1739 30.87 32.3239C30.87 35.4739 33.36 38.0539 36.42 38.0539C38.28 38.0539 40.02 37.0939 41.04 35.5039L41.4 34.8739C41.49 34.7239 41.37 34.5439 41.19 34.5439H38.46C38.4 34.5439 38.34 34.5739 38.31 34.6039C37.8 35.1139 37.17 35.3539 36.45 35.3539C35.1 35.3539 33.96 34.3339 33.66 32.9839H41.46C41.76 32.9839 42 32.7439 42 32.4439L41.97 32.3239ZM36.42 29.2939C37.41 29.2939 38.28 29.8339 38.79 30.6739H34.02C34.53 29.8639 35.43 29.2939 36.42 29.2939ZM38.73 25.9339H33.78C33.54 25.9339 33.36 25.7539 33.36 25.5139V24.2839C33.36 24.0439 33.54 23.8639 33.78 23.8639H38.7C38.94 23.8639 39.12 24.0439 39.12 24.2839V25.5139C39.15 25.7239 38.94 25.9339 38.73 25.9339Z" fill="#1C1C1C"/>
<rect x="0.75" y="1.01074" width="58.5" height="58.5" stroke="#1C1C1C" stroke-width="1.5"/>
</svg>
