<svg width="60" height="61" viewBox="0 0 60 61" fill="none" xmlns="http://www.w3.org/2000/svg">
<g clip-path="url(#clip0_299_968)">
<path class="__dribble" d="M33.9912 40.4999C34.0095 40.4944 34.0269 40.4871 34.0453 40.4807C45.2423 36.0321 42.1449 19.2607 30 19.2607C23.9051 19.2607 19 24.2291 19 30.2607C19 37.8938 26.7312 43.3407 33.9912 40.4999ZM23.8409 37.6482C24.6219 36.3355 27.1492 32.6322 31.463 31.3543C32.4672 33.9135 33.0079 36.631 33.0598 39.3797C31.5039 39.9073 29.8382 40.0251 28.2235 39.7218C26.6088 39.4185 25.0994 38.7044 23.8409 37.6482ZM34.4119 38.8059C34.3105 36.1513 33.7812 33.5304 32.8444 31.0445C34.7529 30.7466 36.9621 30.9455 39.4673 31.9492C39.2058 33.4029 38.614 34.777 37.7375 35.9658C36.861 37.1546 35.7232 38.1263 34.4119 38.8059ZM39.6113 30.5275C36.8521 29.4907 34.4202 29.3615 32.3155 29.763C31.9901 29.0297 31.6482 28.3247 31.2861 27.6757C34.5155 26.386 36.424 24.8139 37.2783 23.9816C38.8547 25.7907 39.6881 28.1292 39.6113 30.5275ZM36.3021 23.0026C35.5248 23.7423 33.6942 25.2365 30.5638 26.4584C29.0293 24.0311 27.3884 22.3187 26.3489 21.3599C27.9963 20.6795 29.801 20.4728 31.5596 20.763C33.3181 21.0532 34.9607 21.8289 36.3021 23.0026ZM25.0344 22.0318C25.8191 22.7221 27.5415 24.3794 29.2034 26.9424C26.9209 27.6776 24.0591 28.2175 20.5785 28.2936C21.1322 25.6407 22.7858 23.3931 25.0344 22.0318ZM20.4043 29.6741C24.3002 29.6108 27.4535 28.9957 29.9459 28.1634C30.2906 28.7675 30.6178 29.4257 30.9323 30.1095C26.5918 31.4918 23.8794 35.0604 22.8408 36.6719C21.9866 35.7282 21.3307 34.6225 20.9121 33.4204C20.4936 32.2182 20.3209 30.9442 20.4043 29.6741Z" fill="#1C1C1C"/>
</g>
<rect x="0.75" y="1.01074" width="58.5" height="58.5" stroke="#1C1C1C" stroke-width="1.5"/>
<defs>
<clipPath id="clip0_299_968">
<rect width="22" height="22" fill="white" transform="translate(19 19.2607)"/>
</clipPath>
</defs>
</svg>
