<svg width="58" height="54" viewBox="0 0 58 54" fill="none" xmlns="http://www.w3.org/2000/svg">
<circle cx="39.5" cy="34.8389" r="18.5" fill="#FFEAE2"/>
<path d="M41.5531 33.1565V12.209C41.5531 12.0349 41.484 11.868 41.3609 11.7449C41.2378 11.6219 41.0709 11.5527 40.8969 11.5527H7.10938C6.93533 11.5527 6.76841 11.6219 6.64534 11.7449C6.52226 11.868 6.45313 12.0349 6.45312 12.209V33.1565C6.45312 33.3305 6.52226 33.4975 6.64534 33.6205C6.76841 33.7436 6.93533 33.8127 7.10938 33.8127H40.8969C41.0709 33.8127 41.2378 33.7436 41.3609 33.6205C41.484 33.4975 41.5531 33.3305 41.5531 33.1565ZM40.2406 32.5002H7.76562V12.8637H40.2406V32.5002Z" fill="#1C1C1C"/>
<path d="M45.6369 35.0216H44.0739V11.3767C44.0733 10.7551 43.8261 10.1591 43.3866 9.71957C42.947 9.28002 42.3511 9.03282 41.7294 9.03223H6.27469C5.65307 9.03282 5.05708 9.28002 4.61753 9.71957C4.17798 10.1591 3.93078 10.7551 3.93019 11.3767V35.0216H2.36719C2.19317 35.0217 2.02631 35.0909 1.90326 35.2139C1.78021 35.337 1.71104 35.5038 1.71094 35.6779V37.302C1.71163 37.9234 1.95879 38.5191 2.39817 38.9585C2.83756 39.3979 3.4333 39.645 4.05469 39.6457H43.9494C44.5709 39.6451 45.1667 39.398 45.6061 38.9586C46.0455 38.5192 46.2926 37.9234 46.2932 37.302V35.6779C46.2932 35.5038 46.224 35.3369 46.101 35.2138C45.9779 35.0907 45.811 35.0216 45.6369 35.0216ZM5.24269 11.3767C5.24289 11.1031 5.35168 10.8407 5.54517 10.6472C5.73867 10.4537 6.00105 10.3449 6.27469 10.3447H41.7294C42.0031 10.3449 42.2655 10.4537 42.459 10.6472C42.6525 10.8407 42.7612 11.1031 42.7614 11.3767V35.0216H28.9311C28.757 35.0216 28.5901 35.0907 28.467 35.2138C28.344 35.3369 28.2748 35.5038 28.2748 35.6779V36.0285H19.7293V35.6779C19.7292 35.5038 19.66 35.337 19.537 35.2139C19.4139 35.0909 19.2471 35.0217 19.0731 35.0216H5.24269V11.3767ZM44.9807 37.302C44.9804 37.5754 44.8716 37.8375 44.6783 38.0309C44.485 38.2242 44.2229 38.3329 43.9494 38.3332H4.05469C3.78131 38.3328 3.51923 38.2241 3.32592 38.0307C3.13261 37.8374 3.02383 37.5754 3.02344 37.302V36.3341H18.4168V36.6847C18.4168 36.8588 18.486 37.0257 18.609 37.1488C18.7321 37.2718 18.899 37.341 19.0731 37.341H28.9311C29.1051 37.341 29.272 37.2718 29.3951 37.1488C29.5182 37.0257 29.5873 36.8588 29.5873 36.6847V36.3341H44.9807V37.302Z" fill="#1C1C1C"/>
</svg>
