<svg width="60" height="61" viewBox="0 0 60 61" fill="none" xmlns="http://www.w3.org/2000/svg">
<g clip-path="url(#clip0_299_972)">
<path class="__instagram" d="M35.0448 19.2607H24.9552C21.6714 19.2607 19 21.9322 19 25.2159V35.3057C19 38.5892 21.6714 41.2607 24.9552 41.2607H35.0449C38.3285 41.2607 41 38.5892 41 35.3057V25.2159C41 21.9322 38.3285 19.2607 35.0448 19.2607ZM39.7102 35.3057C39.7102 37.8781 37.6173 39.9709 35.0448 39.9709H24.9552C22.3826 39.9709 20.2897 37.8781 20.2897 35.3057V25.2159C20.2897 22.6434 22.3826 20.5505 24.9552 20.5505H35.0449C37.6173 20.5505 39.7102 22.6434 39.7102 25.2159V35.3057Z" fill="#1C1C1C"/>
<path class="__instagram" fill-rule="evenodd" clip-rule="evenodd" d="M23.9844 30.2612C23.9844 26.9442 26.6829 24.2457 29.9998 24.2457C33.3168 24.2457 36.0153 26.9442 36.0153 30.2612C36.0153 33.5782 33.3168 36.2766 29.9998 36.2766C26.6828 36.2766 23.9844 33.5782 23.9844 30.2612ZM25.2741 30.2612C25.2741 32.867 27.3942 34.9869 29.9998 34.9869C32.6057 34.9869 34.7255 32.867 34.7255 30.2612C34.7255 27.6556 32.6057 25.5355 29.9998 25.5355C27.3942 25.5355 25.2741 27.6556 25.2741 30.2612ZM34.3817 23.8869C34.3817 22.9068 35.1789 22.1094 36.1591 22.1094C37.1393 22.1094 37.9368 22.9067 37.9368 23.8869C37.9368 24.8671 37.1394 25.6645 36.1591 25.6645C35.1789 25.6645 34.3817 24.8671 34.3817 23.8869Z" fill="#1C1C1C"/>
</g>
<rect x="0.75" y="1.01074" width="58.5" height="58.5" stroke="#1C1C1C" stroke-width="1.5"/>
<defs>
<clipPath id="clip0_299_972">
<rect width="22" height="22" fill="white" transform="translate(19 19.2607)"/>
</clipPath>
</defs>
</svg>
