<svg width="55" height="56" viewBox="0 0 55 56" fill="none" xmlns="http://www.w3.org/2000/svg">
<circle cx="36.5" cy="36.8389" r="18.5" fill="#FFEAE2"/>
<g clip-path="url(#clip0_179_1898)">
<path d="M15.2 22.7444V25.9444C15.2 26.5809 15.4529 27.1913 15.9029 27.6414C16.353 28.0915 16.9635 28.3444 17.6 28.3444H30.4C31.0365 28.3444 31.647 28.0915 32.0971 27.6414C32.5471 27.1913 32.8 26.5809 32.8 25.9444V22.7444C32.7972 20.9713 32.2593 19.2403 31.2565 17.7779C30.2538 16.3155 28.833 15.1899 27.18 14.5484C28.163 13.8702 28.9035 12.8955 29.2933 11.7666C29.6831 10.6377 29.7018 9.41378 29.3466 8.27352C28.9915 7.13327 28.2811 6.13642 27.3192 5.42855C26.3573 4.72068 25.1943 4.33887 24 4.33887C22.8057 4.33887 21.6427 4.72068 20.6808 5.42855C19.7189 6.13642 19.0085 7.13327 18.6534 8.27352C18.2982 9.41378 18.3169 10.6377 18.7067 11.7666C19.0965 12.8955 19.8369 13.8702 20.82 14.5484C19.167 15.1899 17.7462 16.3155 16.7435 17.7779C15.7407 19.2403 15.2028 20.9713 15.2 22.7444ZM20 9.94438C20 9.15325 20.2346 8.37989 20.6741 7.7221C21.1136 7.0643 21.7384 6.55161 22.4693 6.24886C23.2002 5.94611 24.0044 5.8669 24.7804 6.02124C25.5563 6.17558 26.269 6.55654 26.8284 7.11595C27.3878 7.67536 27.7688 8.38809 27.9231 9.16402C28.0775 9.93994 27.9983 10.7442 27.6955 11.4751C27.3928 12.206 26.8801 12.8307 26.2223 13.2703C25.5645 13.7098 24.7911 13.9444 24 13.9444C22.9395 13.9431 21.9228 13.5213 21.173 12.7714C20.4231 12.0215 20.0013 11.0049 20 9.94438ZM24 15.5444C25.9089 15.5465 27.739 16.3057 29.0888 17.6555C30.4386 19.0054 31.1979 20.8355 31.2 22.7444V25.9444C31.2 26.1566 31.1157 26.36 30.9657 26.5101C30.8157 26.6601 30.6122 26.7444 30.4 26.7444H17.6C17.3878 26.7444 17.1843 26.6601 17.0343 26.5101C16.8843 26.36 16.8 26.1566 16.8 25.9444V22.7444C16.8021 20.8355 17.5614 19.0054 18.9112 17.6555C20.261 16.3057 22.0911 15.5465 24 15.5444ZM46.4 36.7444H41.6C41.1757 36.7444 40.7687 36.9129 40.4686 37.213C40.1686 37.5131 40 37.92 40 38.3444V43.1444C40 43.5687 40.1686 43.9757 40.4686 44.2757C40.7687 44.5758 41.1757 44.7444 41.6 44.7444H46.4C46.8243 44.7444 47.2313 44.5758 47.5314 44.2757C47.8314 43.9757 48 43.5687 48 43.1444V38.3444C48 37.92 47.8314 37.5131 47.5314 37.213C47.2313 36.9129 46.8243 36.7444 46.4 36.7444ZM41.6 43.1444V38.3444H46.4V43.1444H41.6ZM15.7656 37.7788C15.6147 37.6331 15.4126 37.5524 15.2029 37.5542C14.9931 37.5561 14.7925 37.6402 14.6441 37.7885C14.4958 37.9368 14.4117 38.1375 14.4099 38.3473C14.408 38.557 14.4887 38.7591 14.6344 38.91L15.6688 39.9444H8V38.3444C8 37.92 7.83143 37.5131 7.53137 37.213C7.23131 36.9129 6.82435 36.7444 6.4 36.7444H1.6C1.17565 36.7444 0.768687 36.9129 0.468629 37.213C0.168571 37.5131 0 37.92 0 38.3444L0 43.1444C0 43.5687 0.168571 43.9757 0.468629 44.2757C0.768687 44.5758 1.17565 44.7444 1.6 44.7444H6.4C6.82435 44.7444 7.23131 44.5758 7.53137 44.2757C7.83143 43.9757 8 43.5687 8 43.1444V41.5444H15.6688L14.6344 42.5788C14.558 42.6526 14.497 42.7408 14.4551 42.8385C14.4132 42.9361 14.3911 43.041 14.3902 43.1473C14.3893 43.2535 14.4095 43.3588 14.4497 43.4571C14.49 43.5555 14.5494 43.6448 14.6245 43.7199C14.6996 43.795 14.7889 43.8544 14.8872 43.8946C14.9856 43.9349 15.0909 43.9551 15.1971 43.9542C15.3033 43.9533 15.4083 43.9312 15.5059 43.8893C15.6035 43.8473 15.6918 43.7864 15.7656 43.71L18.1656 41.31C18.3156 41.16 18.3998 40.9565 18.3998 40.7444C18.3998 40.5322 18.3156 40.3288 18.1656 40.1788L15.7656 37.7788ZM1.6 43.1444V38.3444H6.4V43.1444H1.6ZM35.7656 37.7788C35.6147 37.6331 35.4126 37.5524 35.2029 37.5542C34.9931 37.5561 34.7925 37.6402 34.6441 37.7885C34.4958 37.9368 34.4117 38.1375 34.4099 38.3473C34.408 38.557 34.4887 38.7591 34.6344 38.91L35.6688 39.9444H28V38.3444C28 37.92 27.8314 37.5131 27.5314 37.213C27.2313 36.9129 26.8243 36.7444 26.4 36.7444H21.6C21.1757 36.7444 20.7687 36.9129 20.4686 37.213C20.1686 37.5131 20 37.92 20 38.3444V43.1444C20 43.5687 20.1686 43.9757 20.4686 44.2757C20.7687 44.5758 21.1757 44.7444 21.6 44.7444H26.4C26.8243 44.7444 27.2313 44.5758 27.5314 44.2757C27.8314 43.9757 28 43.5687 28 43.1444V41.5444H35.6688L34.6344 42.5788C34.558 42.6526 34.497 42.7408 34.4551 42.8385C34.4132 42.9361 34.3911 43.041 34.3902 43.1473C34.3893 43.2535 34.4095 43.3588 34.4497 43.4571C34.49 43.5555 34.5494 43.6448 34.6245 43.7199C34.6996 43.795 34.7889 43.8544 34.8872 43.8946C34.9856 43.9349 35.0909 43.9551 35.1971 43.9542C35.3033 43.9533 35.4083 43.9312 35.5059 43.8893C35.6035 43.8473 35.6918 43.7864 35.7656 43.71L38.1656 41.31C38.3156 41.16 38.3998 40.9565 38.3998 40.7444C38.3998 40.5322 38.3156 40.3288 38.1656 40.1788L35.7656 37.7788ZM21.6 43.1444V38.3444H26.4V43.1444H21.6Z" fill="#1C1C1C"/>
</g>
<defs>
<clipPath id="clip0_179_1898">
<rect width="48" height="48" fill="white" transform="translate(0 0.338867)"/>
</clipPath>
</defs>
</svg>
