<svg width="60" height="61" viewBox="0 0 60 61" fill="none" xmlns="http://www.w3.org/2000/svg">
<path class="__linkedin" d="M39.5984 39.8611V32.8291C39.5984 29.3731 38.8544 26.7331 34.8224 26.7331C32.8784 26.7331 31.5824 27.7891 31.0544 28.7971H31.0064V27.0451H27.1904V39.8611H31.1744V33.5011C31.1744 31.8211 31.4864 30.2131 33.5504 30.2131C35.5904 30.2131 35.6144 32.1091 35.6144 33.5971V39.8371H39.5984V39.8611ZM20.7104 27.0451H24.6944V39.8611H20.7104V27.0451ZM22.7024 20.6611C21.4304 20.6611 20.3984 21.6931 20.3984 22.9651C20.3984 24.2371 21.4304 25.2931 22.7024 25.2931C23.9744 25.2931 25.0064 24.2371 25.0064 22.9651C25.0064 21.6931 23.9744 20.6611 22.7024 20.6611Z" fill="#1C1C1C"/>
<rect x="0.75" y="1.01074" width="58.5" height="58.5" stroke="#1C1C1C" stroke-width="1.5"/>
</svg>
