<svg width="58" height="56" viewBox="0 0 58 56" fill="none" xmlns="http://www.w3.org/2000/svg">
<circle cx="39.5" cy="36.8389" r="18.5" fill="#FFEAE2"/>
<path d="M9.49481 23.5466C6.42416 23.5466 3.92613 21.0713 3.92613 18.0297C3.92613 14.9878 6.42416 12.5124 9.49481 12.5124C12.5652 12.5124 15.0627 14.9874 15.0627 18.0297C15.0627 21.0717 12.5652 23.5466 9.49481 23.5466ZM9.49481 14.0608C7.27771 14.0608 5.47452 15.8414 5.47452 18.0297C5.47452 20.2178 7.27771 21.9982 9.49481 21.9982C11.7112 21.9982 13.5143 20.2178 13.5143 18.0297C13.5143 15.8414 11.7112 14.0608 9.49481 14.0608ZM11.735 38.8218H2.02355C0.907742 38.8218 0 37.9199 0 36.811V34.2786C0 29.0944 4.25923 24.8764 9.49481 24.8764C11.554 24.8764 13.514 25.519 15.1614 26.7345C15.3266 26.8564 15.4366 27.039 15.4672 27.2421C15.4979 27.4452 15.4466 27.6521 15.3247 27.8174C15.2027 27.9825 15.0201 28.0924 14.8172 28.123C14.6142 28.1536 14.4073 28.1025 14.2421 27.9807C12.8626 26.9631 11.2213 26.4248 9.49481 26.4248C5.11316 26.4248 1.54839 29.9483 1.54839 34.2786V36.811C1.54839 37.0658 1.76158 37.2734 2.02355 37.2734H11.7354C12.1626 37.2734 12.5096 37.62 12.5096 38.0476C12.5096 38.4747 12.1626 38.8218 11.735 38.8218V38.8218ZM45.9764 38.2359H36.265C35.8378 38.2359 35.4908 37.8892 35.4908 37.4617C35.4908 37.0345 35.8378 36.6875 36.265 36.6875H45.9768C46.2388 36.6875 46.452 36.4804 46.452 36.2256V33.6932C46.452 29.3622 42.8872 25.8393 38.5056 25.8393C36.6756 25.8393 34.889 26.4695 33.4748 27.6141C33.1428 27.883 32.6556 27.8319 32.3861 27.4997C32.1173 27.1673 32.1679 26.6797 32.501 26.4106C34.1896 25.044 36.3221 24.2909 38.5056 24.2909C43.7408 24.2909 48 28.5085 48 33.6932V36.2256C48 37.3339 47.0924 38.2359 45.9764 38.2359ZM38.5052 23.1641C35.4348 23.1641 32.9373 20.6892 32.9373 17.6472C32.9373 14.6052 35.4348 12.1299 38.5052 12.1299C41.5758 12.1299 44.0739 14.6049 44.0739 17.6472C44.0739 20.6895 41.5755 23.1641 38.5052 23.1641ZM38.5052 13.6783C36.2888 13.6783 34.4857 15.4588 34.4857 17.6472C34.4857 19.8355 36.2888 21.6157 38.5052 21.6157C40.7223 21.6157 42.5255 19.8355 42.5255 17.6472C42.5255 15.4588 40.7219 13.6783 38.5052 13.6783Z" fill="#1C1C1C"/>
<path d="M34.5076 41.3409H13.4925C12.0965 41.3409 10.9609 40.2137 10.9609 38.8278V35.2661C10.9609 28.1479 16.8097 22.3569 24.0001 22.3569C31.1905 22.3569 37.0393 28.1479 37.0393 35.2661V38.8278C37.0393 40.2136 35.9037 41.3409 34.5076 41.3409ZM24.0001 23.9057C17.664 23.9057 12.5093 29.0022 12.5093 35.2664V38.8281C12.5093 39.36 12.9504 39.7929 13.4925 39.7929H34.5073C35.0494 39.7929 35.4905 39.36 35.4905 38.8281V35.2664C35.4909 29.0022 30.3362 23.9057 24.0001 23.9057ZM23.731 21.4522C19.7859 21.4522 16.5757 18.2727 16.5757 14.3639C16.5757 10.4556 19.7856 7.27637 23.7311 7.27637C27.6768 7.27637 30.8866 10.4559 30.8866 14.3643C30.8866 18.273 27.6765 21.4522 23.7311 21.4522H23.731ZM23.731 8.82475C20.6394 8.82475 18.1241 11.3099 18.1241 14.3643C18.1241 17.4192 20.6394 19.9042 23.731 19.9042C26.8228 19.9042 29.3382 17.4191 29.3382 14.3643C29.3382 11.3099 26.8228 8.82475 23.7311 8.82475H23.731Z" fill="#1C1C1C"/>
</svg>
