<svg width="58" height="57" viewBox="0 0 58 57" fill="none" xmlns="http://www.w3.org/2000/svg">
<circle cx="39.5" cy="37.8389" r="18.5" fill="#FFEAE2"/>
<g clip-path="url(#clip0_179_1931)">
<path d="M20.0817 21.1753H15.9481C15.0483 21.1753 14.2891 20.4161 14.2891 19.5163V15.3827C14.2891 14.4829 15.0483 13.7236 15.9481 13.7236H20.0817C20.9815 13.7236 21.7407 14.4829 21.7407 15.3827V19.5163C21.7407 20.4161 20.9815 21.1753 20.0817 21.1753ZM15.9481 15.3827V19.5163H20.0817V15.3827H15.9481ZM32.0325 21.1753H27.927C26.9991 21.1753 26.268 20.4161 26.268 19.5163V15.3827C26.268 14.4829 26.9991 13.7236 27.927 13.7236H32.0325C32.9604 13.7236 33.7196 14.4829 33.7196 15.3827V19.5163C33.7196 20.4161 32.9604 21.1753 32.0325 21.1753ZM27.927 15.3827V19.5163H32.0606V15.3827H32.0325H27.927ZM20.0817 33.1542H15.9481C15.0483 33.1542 14.2891 32.395 14.2891 31.4952V27.3616C14.2891 26.4618 15.0483 25.7025 15.9481 25.7025H20.0817C20.9815 25.7025 21.7407 26.4618 21.7407 27.3616V31.4952C21.7407 32.395 20.9815 33.1542 20.0817 33.1542ZM15.9481 27.3616V31.4952H20.0817V27.3616H15.9481ZM32.0325 33.1542H27.927C26.9991 33.1542 26.268 32.395 26.268 31.4952V27.3616C26.268 26.4618 26.9991 25.7025 27.927 25.7025H32.0325C32.9604 25.7025 33.7196 26.4618 33.7196 27.3616V31.4952C33.7196 32.395 32.9604 33.1542 32.0325 33.1542ZM27.927 27.3616V31.4952H32.0606V27.3616H32.0325H27.927Z" fill="#1C1C1C"/>
<path d="M37.5977 48.3389H10.4061C9.92805 48.3389 9.5625 47.9733 9.5625 47.4953V1.15433C9.5625 0.704421 9.92805 0.338867 10.4061 0.338867H37.5977C38.0476 0.338867 38.4131 0.704421 38.4131 1.15433V47.4953C38.4131 47.9733 38.0476 48.3389 37.5977 48.3389ZM11.2216 46.6798H36.7822V1.99792H11.2216V46.6798Z" fill="#1C1C1C"/>
<path d="M27.5027 5.70969H20.501C18.9544 5.70969 17.689 4.44431 17.689 2.89774V1.15433C17.689 0.704421 18.0546 0.338867 18.5045 0.338867C18.9544 0.338867 19.32 0.704421 19.32 1.15433V2.89774C19.32 3.54449 19.8542 4.07876 20.501 4.07876H27.5027C28.1495 4.07876 28.6838 3.54449 28.6838 2.89774V1.15433C28.6838 0.704421 29.0493 0.338867 29.4992 0.338867C29.9491 0.338867 30.3147 0.704421 30.3147 1.15433V2.89774C30.3147 4.44431 29.0493 5.70969 27.5027 5.70969ZM37.5977 42.7993H10.4061C9.92805 42.7993 9.5625 42.4338 9.5625 41.9839C9.5625 41.5339 9.92805 41.1684 10.4061 41.1684H37.5977C38.0476 41.1684 38.4131 41.5339 38.4131 41.9839C38.4131 42.4338 38.0476 42.7993 37.5977 42.7993ZM27.1934 45.555H20.7822C20.3323 45.555 19.9667 45.1895 19.9667 44.7396C19.9667 44.2897 20.3323 43.9241 20.7822 43.9241H27.1934C27.6715 43.9241 28.037 44.2897 28.037 44.7396C28.037 45.1895 27.6715 45.555 27.1934 45.555Z" fill="#1C1C1C"/>
</g>
<defs>
<clipPath id="clip0_179_1931">
<rect width="48" height="48" fill="white" transform="translate(0 0.338867)"/>
</clipPath>
</defs>
</svg>
