<svg width="55" height="57" viewBox="0 0 55 57" fill="none" xmlns="http://www.w3.org/2000/svg">
<circle cx="36.5" cy="37.8389" r="18.5" fill="#FFEAE2"/>
<g clip-path="url(#clip0_179_1917)">
<path d="M23.9297 25.5293V28.2482M28.9577 25.5293V28.2482M33.9857 25.5293V28.2482" stroke="#1C1C1C" stroke-width="1.40625" stroke-miterlimit="10" stroke-linecap="round" stroke-linejoin="round"/>
<path d="M5.31838 22.5625C7.86299 22.5625 9.92581 20.4997 9.92581 17.9551C9.92581 15.4105 7.86299 13.3477 5.31838 13.3477C2.77376 13.3477 0.710938 15.4105 0.710938 17.9551C0.710938 20.4997 2.77376 22.5625 5.31838 22.5625Z" stroke="#1C1C1C" stroke-width="1.40625" stroke-miterlimit="10" stroke-linecap="round" stroke-linejoin="round"/>
<path d="M16.3318 17.177C15.6033 16.1377 15.2132 14.8989 15.2148 13.6298C15.2148 13.4534 15.224 13.2792 15.2384 13.1066L8.72656 14.8565C9.47047 15.6747 9.92394 16.7619 9.92394 17.9549C9.92394 18.2885 9.88766 18.6133 9.82034 18.9268L16.3318 17.177ZM38.5986 15.7371C38.2624 15.0856 38.0873 14.3629 38.088 13.6298C38.088 12.8701 38.273 12.1541 38.5986 11.5225H27.2407C27.4849 12.1982 27.6095 12.9113 27.6088 13.6298C27.6095 14.3483 27.4849 15.0614 27.2407 15.7371H38.5986Z" stroke="#1C1C1C" stroke-width="1.40625" stroke-miterlimit="10" stroke-linecap="round" stroke-linejoin="round"/>
<path d="M42.6934 18.2373C45.238 18.2373 47.3008 16.1745 47.3008 13.6299C47.3008 11.0853 45.238 9.02246 42.6934 9.02246C40.1488 9.02246 38.0859 11.0853 38.0859 13.6299C38.0859 16.1745 40.1488 18.2373 42.6934 18.2373Z" stroke="#1C1C1C" stroke-width="1.40625" stroke-miterlimit="10" stroke-linecap="round" stroke-linejoin="round"/>
<path d="M18.9668 19.323C19.224 18.2078 20.2224 17.376 21.4158 17.376C22.6092 17.376 23.6076 18.2078 23.8648 19.323C26.0692 18.3735 27.6129 16.1822 27.6129 13.6297C27.6129 10.2071 24.8383 7.43262 21.4158 7.43262C17.9933 7.43262 15.2188 10.2071 15.2188 13.6297C15.2188 16.1821 16.7623 18.3735 18.9668 19.323Z" stroke="#1C1C1C" stroke-width="1.40625" stroke-miterlimit="10" stroke-linecap="round" stroke-linejoin="round"/>
<path d="M36.4957 23.0149C35.1072 23.0149 33.9817 24.1405 33.9817 25.5289C33.9817 24.1405 32.8561 23.0149 31.4677 23.0149C30.0792 23.0149 28.9537 24.1405 28.9537 25.5289C28.9537 24.1405 27.8281 23.0149 26.4397 23.0149C25.0512 23.0149 23.9257 24.1405 23.9257 25.5289V19.89C23.9257 18.5015 22.8001 17.376 21.4117 17.376C20.0232 17.376 18.8977 18.5015 18.8977 19.89V30.2934L17.4973 29.2786C16.3731 28.4638 14.8012 28.7147 13.9864 29.8389C13.1716 30.9632 13.4225 32.5351 14.5467 33.3499L18.8976 36.5029V41.2459H39.0096V25.5289C39.0097 24.1405 37.8841 23.0149 36.4957 23.0149Z" stroke="#1C1C1C" stroke-width="1.40625" stroke-miterlimit="10" stroke-linecap="round" stroke-linejoin="round"/>
</g>
<defs>
<clipPath id="clip0_179_1917">
<rect width="48" height="48" fill="white" transform="translate(0 0.338867)"/>
</clipPath>
</defs>
</svg>
