<svg width="58" height="53" viewBox="0 0 58 53" fill="none" xmlns="http://www.w3.org/2000/svg">
<circle cx="39.5" cy="33.8389" r="18.5" fill="#FFEAE2"/>
<g clip-path="url(#clip0_179_1907)">
<path d="M35.2715 28.0965V1.79349C35.2715 1.59418 35.1923 1.40303 35.0514 1.2621C34.9105 1.12117 34.7193 1.04199 34.52 1.04199H13.66C13.062 1.04201 12.4886 1.27956 12.0658 1.70237L5.87131 7.8968C5.4485 8.31962 5.21096 8.89307 5.21094 9.49102V37.8661C5.21094 38.0654 5.29011 38.2565 5.43105 38.3974C5.57198 38.5384 5.76313 38.6176 5.96244 38.6176H24.7502" stroke="#1C1C1C" stroke-width="1.40625" stroke-miterlimit="10" stroke-linecap="round" stroke-linejoin="round"/>
<path d="M12.7244 1.3877V7.05441C12.7244 7.88448 12.0515 8.55741 11.2214 8.55741H5.55469M38.0934 29.5998L41.2819 32.7881M25.3712 42.322L28.5595 45.5105M21.7426 13.0665H9.71841V32.6058L30.7607 28.8483V13.0665V7.05441L21.7426 8.66138V13.0665ZM42.3446 29.5998L41.2818 28.5369C40.6948 27.95 39.7432 27.95 39.1562 28.5369L24.7499 42.9433C24.461 43.2323 24.256 43.5943 24.1568 43.9907L23.2455 47.6361L26.8909 46.7247C27.2873 46.6256 27.6493 46.4206 27.9382 46.1317L42.3445 31.7254C42.9316 31.1384 42.9316 30.1868 42.3446 29.5998Z" stroke="#1C1C1C" stroke-width="1.40625" stroke-miterlimit="10" stroke-linecap="round" stroke-linejoin="round"/>
</g>
<defs>
<clipPath id="clip0_179_1907">
<rect width="48" height="48" fill="white" transform="translate(0 0.338867)"/>
</clipPath>
</defs>
</svg>
