<svg width="48" height="48" viewBox="0 0 48 48" fill="none" xmlns="http://www.w3.org/2000/svg">
<rect y="48" width="48" height="48" rx="24" transform="rotate(-90 0 48)" fill="#1C1C1C"/>
<path d="M15.25 22.6453C14.9599 22.6453 14.6817 22.7605 14.4766 22.9656C14.2715 23.1707 14.1562 23.4489 14.1562 23.739C14.1562 24.0291 14.2715 24.3073 14.4766 24.5124C14.6817 24.7175 14.9599 24.8328 15.25 24.8328L30.1097 24.8328L24.3205 30.622C24.1212 30.8283 24.011 31.1046 24.0135 31.3913C24.016 31.6781 24.131 31.9524 24.3338 32.1552C24.5366 32.358 24.8109 32.4731 25.0977 32.4755C25.3845 32.478 25.6607 32.3678 25.867 32.1686L33.5233 24.5123C33.7283 24.3072 33.8435 24.029 33.8435 23.739C33.8435 23.449 33.7283 23.1708 33.5233 22.9657L25.867 15.3095C25.6607 15.1102 25.3845 15 25.0977 15.0025C24.8109 15.005 24.5366 15.12 24.3338 15.3228C24.131 15.5256 24.016 15.7999 24.0135 16.0867C24.011 16.3735 24.1212 16.6498 24.3205 16.856L30.1097 22.6453L15.25 22.6453Z" fill="white"/>
</svg>
