<svg width="48" height="48" viewBox="0 0 48 48" fill="none" xmlns="http://www.w3.org/2000/svg">
<rect width="48" height="48" rx="24" transform="matrix(4.37114e-08 -1 -1 -4.37114e-08 48 48)" fill="#DBDAD9"/>
<path d="M32.75 22.6453C33.0401 22.6453 33.3183 22.7605 33.5234 22.9656C33.7285 23.1707 33.8438 23.4489 33.8438 23.739C33.8438 24.0291 33.7285 24.3073 33.5234 24.5124C33.3183 24.7175 33.0401 24.8328 32.75 24.8328L17.8903 24.8328L23.6795 30.622C23.8788 30.8283 23.989 31.1046 23.9865 31.3913C23.984 31.6781 23.869 31.9524 23.6662 32.1552C23.4634 32.358 23.1891 32.4731 22.9023 32.4755C22.6155 32.478 22.3393 32.3678 22.133 32.1686L14.4767 24.5123C14.2717 24.3072 14.1565 24.029 14.1565 23.739C14.1565 23.449 14.2717 23.1708 14.4767 22.9657L22.133 15.3095C22.3393 15.1102 22.6155 15 22.9023 15.0025C23.1891 15.005 23.4634 15.12 23.6662 15.3228C23.869 15.5256 23.984 15.7999 23.9865 16.0867C23.989 16.3735 23.8788 16.6498 23.6795 16.856L17.8903 22.6453L32.75 22.6453Z" fill="white"/>
</svg>
