<svg width="29" height="29" viewBox="0 0 29 29" fill="none" xmlns="http://www.w3.org/2000/svg">
<path fill-rule="evenodd" clip-rule="evenodd" d="M13.5221 19.5633L13.9884 28.6805L15.9167 28.5818L15.4482 19.4191L19.4081 27.6947L21.1498 26.8613L17.2151 18.6384L23.9833 24.7481L25.2771 23.3148L18.4816 17.1805L27.1092 20.2423L27.755 18.4226L19.1284 15.3612L28.2698 14.8821L28.1687 12.9539L19.0492 13.4318L27.2955 9.50898L26.466 7.76535L18.256 11.6709L24.3736 4.94648L22.9453 3.64712L16.7505 10.4564L19.8267 1.779L18.0068 1.13384L14.9535 9.74669L14.4869 0.620799L12.5585 0.719409L13.0273 9.88666L9.06499 1.60615L7.32326 2.43959L11.2556 10.6575L4.49468 4.55439L3.20086 5.98767L9.99325 12.1192L1.36968 9.05879L0.7239 10.8785L9.35084 13.9401L0.209525 14.4191L0.310579 16.3474L9.4301 15.8694L1.18334 19.7925L2.0128 21.5361L10.2247 17.6297L4.1046 24.3568L5.53286 25.6562L11.7274 18.8471L8.65203 27.5223L10.4719 28.1675L13.5221 19.5633Z" fill="white"/>
</svg>
